<svg width="515" height="480" viewBox="0 0 515 480" fill="none" xmlns="http://www.w3.org/2000/svg">
<path d="M512.662 210.074C512.662 210.621 512.662 211.172 512.662 211.719C512.662 212.265 512.662 212.781 512.662 213.317C512.662 213.729 512.662 214.147 512.662 214.564L512.631 215.982C512.631 216.456 512.631 216.925 512.59 217.399C512.59 217.977 512.569 218.554 512.528 219.131C512.487 220.214 512.43 221.291 512.369 222.368C512.307 223.446 512.23 224.513 512.147 225.58C512.106 226.095 512.065 226.652 512.018 227.188C511.988 227.554 511.952 227.92 511.915 228.286C511.879 228.652 511.849 229.018 511.813 229.384C511.703 230.48 511.584 231.573 511.457 232.662C511.401 233.178 511.339 233.662 511.277 234.162C510.831 237.65 510.288 241.106 509.65 244.528C507.039 258.432 502.763 271.969 496.915 284.848C485.535 309.912 468.498 331.99 447.147 349.344C442.39 353.209 437.435 356.822 432.301 360.169C432.303 360.179 432.303 360.19 432.301 360.2C429.283 362.179 426.194 364.069 423.032 365.87C422.255 366.308 421.487 366.746 420.694 367.174C418.689 368.284 416.661 369.349 414.608 370.37C394.847 381.382 377.976 396.928 365.38 415.731C353.045 434.105 345.186 455.118 342.434 477.082C342.314 478.052 342.202 479.024 342.099 480H328.84C327.089 462.946 322.254 446.353 314.571 431.03L314.473 430.829C311.88 425.675 308.978 420.683 305.781 415.881L305.693 415.752C305.317 415.185 304.931 414.618 304.545 414.056L304.432 413.891C298.518 405.333 291.691 397.444 284.071 390.365C284.02 390.323 283.972 390.278 283.927 390.231C276.034 382.917 267.342 376.519 258.015 371.159L257.639 370.947C254.834 369.346 251.971 367.839 249.05 366.427C229.4 355.388 212.024 340.714 197.845 323.184V323.21C197.259 328.714 196.967 334.246 196.969 339.782C196.969 341.524 197 343.256 197.052 344.983C197.144 347.653 197.3 350.304 197.52 352.937C199.095 371.844 204.143 390.298 212.412 407.37C191.672 394.029 174.392 375.949 161.995 354.617H161.886C161.073 353.215 160.282 351.798 159.513 350.365C147.387 327.806 141.058 302.583 141.093 276.967C141.093 272.64 141.265 268.36 141.608 264.127C130.226 286.141 124.306 310.576 124.347 335.364C124.347 339.364 124.497 343.316 124.795 347.22C125.268 353.465 126.117 359.676 127.339 365.818C128.782 373.084 130.749 380.235 133.225 387.215C126.173 383.094 119.458 378.422 113.142 373.241C113.093 373.267 113.044 373.297 112.998 373.329C95.2566 358.789 80.9653 340.484 71.1583 319.737C61.3513 298.991 56.2739 276.321 56.2933 253.369C56.2933 248.424 56.5198 243.539 56.973 238.714C47.8158 257.943 42.7315 278.861 42.0398 300.153C41.9814 301.909 41.9522 303.675 41.9522 305.452C41.9458 318.873 43.6767 332.239 47.1016 345.215C16.5183 306.249 -0.0729016 258.113 0.000240804 208.559C-0.00423715 196.619 0.948034 184.697 2.84786 172.909C3.79192 167.105 4.95394 161.378 6.33397 155.728C23.7955 89.1968 84.2853 40.1293 156.227 40.1293C185.194 40.0817 213.588 48.201 238.159 63.5574C260.881 77.7643 279.559 97.5974 292.387 121.14L292.758 121.831C295.051 126.092 297.147 130.47 299.045 134.965C305.532 150.362 309.478 166.711 310.729 183.373C310.897 185.583 311.019 187.816 311.095 190.074C311.095 190.801 311.136 191.528 311.146 192.255C316.296 190.502 321.555 188.973 326.924 187.667C330.868 186.708 334.859 185.878 338.896 185.177H338.927C340.59 184.883 342.264 184.621 343.943 184.373C345.855 184.095 347.776 183.846 349.705 183.626C354.312 183.1 358.97 182.746 363.68 182.564C366.354 152.316 376.787 123.273 393.969 98.2485C397.22 93.5062 400.687 88.9374 404.371 84.5422L404.654 84.2019L404.932 83.8772C405.164 83.5988 405.401 83.3205 405.637 83.0473C405.874 82.7741 406.152 82.4235 406.446 82.1143L406.775 81.7328L407.682 80.7019L407.924 80.4236L408.789 79.4648C409.29 78.9081 409.805 78.3548 410.334 77.8049C410.735 77.3668 411.147 76.9338 411.559 76.4957C411.971 76.0575 412.383 75.6297 412.795 75.2019C413.207 74.774 413.629 74.341 414.052 73.9183C414.963 72.9956 415.885 72.0781 416.812 71.176C416.158 71.176 415.504 71.207 414.845 71.207C413.995 71.207 413.145 71.207 412.306 71.1503C411.765 71.1503 411.23 71.0987 410.694 71.0575C410.493 71.0575 410.287 71.0575 410.087 71.0111L409.35 70.9492L408.624 70.8719H408.593L407.888 70.7894L407.033 70.6812L406.446 70.5987H406.415L405.782 70.5008H405.668L404.999 70.3873L404.484 70.2946L404.108 70.2224L403.506 70.109L402.883 69.9801L402.177 69.8255L401.472 69.6606L400.776 69.4904L400.164 69.3307C399.896 69.2636 399.649 69.1914 399.371 69.1141L398.789 68.9544L398.016 68.7224C397.56 68.5849 397.107 68.4406 396.657 68.2894L395.982 68.0574C395.251 67.8049 394.525 67.542 393.809 67.2533L393.325 67.0626L392.81 66.846L392.182 66.5832L391.626 66.3409L391.528 66.2997L390.946 66.0368L390.097 65.6399C378.264 59.9713 368.708 50.445 362.995 38.6241C362.887 38.4076 362.784 38.1912 362.686 37.9695V37.9127C362.455 37.3973 362.228 36.8818 362.007 36.3663C362.005 36.3561 362.005 36.3456 362.007 36.3354C357.105 24.8694 356.032 12.1255 358.948 0C364.331 6.59292 371.414 11.5849 379.429 14.4345C387.444 17.2841 396.086 17.8826 404.417 16.1651C405.365 15.9692 406.302 15.7458 407.229 15.495L407.8 15.3301L408.387 15.16C412.378 14.0715 416.496 13.5219 420.632 13.5259H420.967C427.26 13.5619 433.479 14.8803 439.246 17.4007C445.013 19.9211 450.206 23.5907 454.51 28.1858C452.597 22.6669 449.148 17.8106 444.569 14.1893C439.99 10.5681 434.472 8.33301 428.665 7.74752C437.276 2.60298 447.318 0.382163 457.292 1.41622C467.267 2.45028 476.64 6.6838 484.015 13.4856C491.39 20.2874 496.371 29.2931 498.216 39.16C500.061 49.0268 498.671 59.2264 494.253 68.2379C494.088 68.542 493.934 68.8461 493.785 69.1554C493.261 70.2608 492.829 71.4072 492.492 72.5832L515 83.1349L495.134 90.9907C496.559 93.2273 498.367 95.1954 500.474 96.8051C500.757 97.0268 501.04 97.2382 501.333 97.4392C504.842 100.097 507.637 103.585 509.466 107.591C511.295 111.596 512.101 115.994 511.813 120.389C511.524 124.784 510.15 129.038 507.813 132.77C505.476 136.502 502.25 139.594 498.424 141.77C503.812 154.314 507.723 167.444 510.077 180.894C510.154 181.332 510.232 181.775 510.304 182.213C510.376 182.651 510.453 183.126 510.53 183.584L510.747 185.002C510.901 186.033 511.045 187.023 511.179 188.033L511.38 189.579C511.517 190.7 511.646 191.822 511.766 192.945C511.828 193.528 511.885 194.11 511.941 194.693C512.029 195.626 512.111 196.559 512.188 197.497C512.266 198.435 512.327 199.373 512.384 200.317C512.384 200.693 512.43 201.069 512.456 201.445L512.503 202.317C512.503 202.832 512.554 203.348 512.575 203.863C512.606 204.569 512.631 205.281 512.652 205.992C512.652 206.466 512.683 206.94 512.693 207.415L512.724 208.842C512.657 209.26 512.662 209.667 512.662 210.074Z" fill="url(#paint0_linear_931_2)"/>
<defs>
<linearGradient id="paint0_linear_931_2" x1="215.309" y1="419.628" x2="469.15" y2="16.5771" gradientUnits="userSpaceOnUse">
<stop stop-color="#2F7269"/>
<stop offset="1" stop-color="#D4D985"/>
</linearGradient>
</defs>
</svg>
